<svg width="743" height="569" viewBox="0 0 743 569" fill="none" xmlns="http://www.w3.org/2000/svg">
<path d="M218.436 465.727C177.972 465.727 137.508 465.727 97.0437 465.727C96.1423 465.727 96.1423 467.149 97.0437 467.149C137.508 467.149 177.972 467.149 218.436 467.149C219.338 467.149 219.338 465.727 218.436 465.727Z" fill="#161616"/>
<path d="M363.405 458.614C397.181 458.614 430.909 458.614 464.684 458.614C474.267 458.614 483.849 458.614 493.432 458.614C494.333 458.614 494.333 457.192 493.432 457.192C459.656 457.192 425.928 457.192 392.152 457.192C382.57 457.192 372.988 457.192 363.405 457.192C362.504 457.192 362.504 458.614 363.405 458.614Z" fill="#161616"/>
<path d="M501.259 458.614C527.207 458.614 553.155 458.614 579.103 458.614C580.005 458.614 580.005 457.192 579.103 457.192C553.155 457.192 527.207 457.192 501.259 457.192C500.357 457.192 500.357 458.614 501.259 458.614Z" fill="#161616"/>
<path d="M590.536 458.614C595.043 458.614 599.597 458.614 604.103 458.614C605.005 458.614 605.005 457.192 604.103 457.192C599.597 457.192 595.043 457.192 590.536 457.192C589.635 457.192 589.587 458.614 590.536 458.614Z" fill="#161616"/>
<path d="M526.638 457.002C526.638 441.07 526.638 425.09 526.638 409.158C526.638 408.258 525.215 408.258 525.215 409.158C525.215 425.09 525.215 441.07 525.215 457.002C525.215 457.903 526.638 457.903 526.638 457.002Z" fill="black"/>
<path d="M526.211 409.87C554.815 409.87 583.468 409.87 612.073 409.87C612.974 409.87 612.974 408.447 612.073 408.447C583.468 408.447 554.815 408.447 526.211 408.447C525.309 408.447 525.309 409.87 526.211 409.87Z" fill="black"/>
<path d="M611.646 410.344C611.646 425.517 611.646 440.69 611.646 455.864C611.646 456.765 613.069 456.765 613.069 455.864C613.069 440.69 613.069 425.517 613.069 410.344C613.069 409.395 611.646 409.395 611.646 410.344Z" fill="black"/>
<path d="M534.18 414.659C534.18 426.039 534.18 437.466 534.18 448.846C534.18 449.747 535.603 449.747 535.603 448.846C535.603 437.466 535.603 426.039 535.603 414.659C535.603 413.758 534.18 413.758 534.18 414.659Z" fill="black"/>
<path d="M545.233 414.943C545.233 425.28 545.233 435.617 545.233 445.954C545.233 446.855 546.657 446.855 546.657 445.954C546.657 435.617 546.657 425.28 546.657 414.943C546.657 414.042 545.233 414.042 545.233 414.943Z" fill="black"/>
<path d="M557.425 414.09C557.425 424.332 557.425 434.574 557.425 444.816C557.425 445.717 558.848 445.717 558.848 444.816C558.848 434.574 558.848 424.332 558.848 414.09C558.848 413.189 557.425 413.189 557.425 414.09Z" fill="black"/>
<path d="M569.901 416.129C569.901 426.56 569.901 436.992 569.901 447.424C569.901 448.325 571.324 448.325 571.324 447.424C571.324 436.992 571.324 426.56 571.324 416.129C571.324 415.228 569.901 415.18 569.901 416.129Z" fill="black"/>
<path d="M582.045 416.698C582.045 427.414 582.045 438.13 582.045 448.894C582.045 449.794 583.468 449.794 583.468 448.894C583.468 438.177 583.468 427.461 583.468 416.698C583.468 415.797 582.045 415.797 582.045 416.698Z" fill="black"/>
<path d="M597.13 416.982C597.13 427.129 597.13 437.276 597.13 447.424C597.13 448.325 598.553 448.325 598.553 447.424C598.553 437.276 598.553 427.129 598.553 416.982C598.553 416.081 597.13 416.081 597.13 416.982Z" fill="black"/>
<path d="M607.281 418.452C607.281 427.556 607.281 436.613 607.281 445.717C607.281 446.618 608.704 446.618 608.704 445.717C608.704 436.613 608.704 427.556 608.704 418.452C608.704 417.504 607.281 417.504 607.281 418.452Z" fill="black"/>
<path d="M494.191 179.804C530.765 179.804 567.387 179.804 603.961 179.804C614.35 179.804 624.786 179.804 635.175 179.804C636.076 179.804 636.076 178.382 635.175 178.382C598.601 178.382 561.979 178.382 525.404 178.382C515.016 178.382 504.579 178.382 494.191 178.382C493.242 178.382 493.242 179.804 494.191 179.804Z" fill="black"/>
<path d="M494.902 178.666C494.902 175.537 494.902 172.454 494.902 169.325C494.902 168.424 493.479 168.424 493.479 169.325C493.479 172.454 493.479 175.537 493.479 178.666C493.479 179.614 494.902 179.614 494.902 178.666Z" fill="black"/>
<path d="M494.191 170.463C530.385 170.463 566.58 170.463 602.728 170.463C613.116 170.463 623.505 170.463 633.894 170.463C634.795 170.463 634.795 169.04 633.894 169.04C597.699 169.04 561.504 169.04 525.357 169.04C514.968 169.04 504.579 169.04 494.191 169.04C493.242 169.04 493.242 170.463 494.191 170.463Z" fill="black"/>
<path d="M633.609 170.178C633.609 173.308 633.609 176.39 633.609 179.52C633.609 180.42 635.032 180.42 635.032 179.52C635.032 176.39 635.032 173.308 635.032 170.178C635.032 169.278 633.609 169.278 633.609 170.178Z" fill="black"/>
<path d="M509.038 133.146C509.465 136.37 509.939 139.69 509.465 142.961C509.038 146.091 507.662 148.888 506.477 151.781C504.199 157.234 503.014 162.924 503.061 168.803C503.061 169.704 504.484 169.704 504.484 168.803C504.484 162.07 506.192 156.096 508.801 149.979C509.75 147.75 510.604 145.474 510.936 143.056C511.363 139.737 510.936 136.465 510.509 133.146C510.319 132.245 508.896 132.245 509.038 133.146Z" fill="black"/>
<path d="M510.177 133.762C511.742 133.004 513.497 132.719 515.253 133.099C516.249 133.336 516.439 133.905 516.723 134.758C516.865 135.185 516.913 135.375 517.198 135.754C517.767 136.465 518.763 135.469 518.194 134.758C517.814 134.284 518.194 133.336 517.672 132.767C517.15 132.103 516.106 131.866 515.347 131.724C513.308 131.344 511.268 131.676 509.418 132.577C508.611 132.909 509.323 134.142 510.177 133.762Z" fill="black"/>
<path d="M516.771 134.189C516.344 139.927 517.815 145 520.471 150.026C523.649 156.048 524.171 162.307 524.361 169.04C524.408 169.941 525.831 169.941 525.784 169.04C525.594 163.303 525.405 157.376 523.033 152.065C521.799 149.268 520.139 146.755 519.238 143.815C518.241 140.685 517.957 137.461 518.194 134.189C518.289 133.288 516.818 133.288 516.771 134.189Z" fill="black"/>
<path d="M539.256 168.614C539.92 167.333 539.303 165.958 540.157 164.868C541.486 163.256 545.707 163.303 547.605 163.113C551.827 162.687 556.001 162.734 560.223 163.066C564.445 163.398 568.667 163.967 572.937 164.157C575.024 164.251 577.111 164.204 579.198 164.157C581.286 164.109 587.025 164.773 584.843 168.329C584.369 169.088 585.602 169.847 586.077 169.04C588.022 165.911 584.796 163.113 581.807 162.734C579.198 162.402 576.494 162.829 573.838 162.734C570.66 162.639 567.481 162.307 564.303 161.975C558.278 161.406 552.301 161.075 546.277 161.786C544.189 162.023 541.059 162.023 539.256 163.208C537.453 164.394 538.829 166.195 538.023 167.808C537.596 168.709 538.829 169.467 539.256 168.614Z" fill="black"/>
<path d="M556.618 161.643C557.045 160.6 556.808 159.557 557.14 158.514C557.994 155.859 561.362 156.665 563.402 156.665C567.197 156.665 570.944 156.665 574.739 156.712C582.282 156.712 589.824 156.76 597.414 156.76C597.177 156.57 596.94 156.428 596.75 156.238C597.272 158.656 597.699 161.074 598.031 163.54C598.126 164.441 599.549 164.441 599.454 163.54C599.122 160.932 598.695 158.372 598.126 155.859C598.078 155.574 597.746 155.337 597.462 155.337C588.354 155.29 579.198 155.29 570.09 155.242C567.908 155.242 565.679 155.242 563.496 155.242C561.836 155.242 559.939 154.958 558.278 155.337C555.195 156.048 556.286 159.036 555.385 161.264C554.91 162.118 556.286 162.497 556.618 161.643Z" fill="black"/>
<path d="M585.603 165.295C589.73 165.532 593.857 165.437 597.936 164.963C598.838 164.868 598.838 163.445 597.936 163.54C593.809 164.014 589.73 164.109 585.603 163.872C584.701 163.777 584.701 165.2 585.603 165.295Z" fill="black"/>
<path d="M585.46 156.143C586.409 158.609 586.836 161.169 586.741 163.825C586.693 164.726 588.116 164.726 588.164 163.825C588.259 161.027 587.784 158.372 586.836 155.764C586.504 154.91 585.128 155.29 585.46 156.143Z" fill="black"/>
<path d="M616.01 125.844C616.01 129.779 616.01 133.762 616.01 137.698C616.01 141.444 616.295 145.38 615.583 149.078C614.919 152.634 613.021 155.527 611.124 158.514C609.084 161.833 607.234 165.247 605.526 168.756C605.147 169.562 606.38 170.321 606.76 169.467C608.562 165.721 610.555 162.07 612.784 158.514C614.587 155.669 616.295 152.824 616.911 149.457C617.528 146.043 617.386 142.535 617.386 139.121C617.386 134.711 617.386 130.254 617.386 125.844C617.433 124.943 616.01 124.943 616.01 125.844Z" fill="black"/>
<path d="M617.196 126.745C619.52 125.465 622.129 125.512 624.406 126.84C625.213 127.314 625.924 126.081 625.118 125.607C622.414 123.995 619.188 123.947 616.484 125.512C615.678 125.939 616.389 127.172 617.196 126.745Z" fill="black"/>
<path d="M623.268 126.318C623.268 130.68 623.22 135.09 623.22 139.453C623.22 142.961 622.888 146.66 623.363 150.169C623.837 153.488 625.64 155.954 627.585 158.561C630.004 161.738 631.712 165.058 632.566 168.993C632.755 169.894 634.131 169.515 633.941 168.614C633.277 165.437 632.044 162.45 630.241 159.747C628.249 156.76 625.545 154.247 624.881 150.548C624.169 146.66 624.644 142.392 624.644 138.504C624.644 134.426 624.691 130.349 624.691 126.271C624.691 125.417 623.268 125.417 623.268 126.318Z" fill="black"/>
<path d="M548.174 194.977C548.174 212.806 548.174 230.682 548.174 248.511C548.174 249.412 549.597 249.412 549.597 248.511C549.597 230.682 549.597 212.806 549.597 194.977C549.597 194.029 548.174 194.029 548.174 194.977Z" fill="black"/>
<path d="M549.929 195.12C574.644 195.12 599.359 195.12 624.074 195.12C624.976 195.12 624.976 193.697 624.074 193.697C599.359 193.697 574.644 193.697 549.929 193.697C549.028 193.697 549.028 195.12 549.929 195.12Z" fill="black"/>
<path d="M549.076 249.127C572.7 249.127 596.324 249.127 619.995 249.127C620.896 249.127 620.896 247.705 619.995 247.705C596.371 247.705 572.747 247.705 549.076 247.705C548.127 247.705 548.127 249.127 549.076 249.127Z" fill="black"/>
<path d="M622.509 195.404C622.509 213.091 622.509 230.73 622.509 248.416C622.509 249.317 623.932 249.317 623.932 248.416C623.932 230.73 623.932 213.091 623.932 195.404C623.932 194.503 622.509 194.503 622.509 195.404Z" fill="black"/>
<path d="M619.568 249.364C620.516 249.364 621.512 249.364 622.461 249.364C623.363 249.364 623.363 247.942 622.461 247.942C621.512 247.942 620.516 247.942 619.568 247.942C618.666 247.942 618.666 249.364 619.568 249.364Z" fill="black"/>
<path d="M554.673 211.099C575.261 211.146 595.896 211.194 616.484 211.241C617.385 211.241 617.385 209.819 616.484 209.819C595.896 209.771 575.261 209.724 554.673 209.677C553.772 209.677 553.772 211.099 554.673 211.099Z" fill="black"/>
<path d="M556.618 224.992C576.542 224.945 596.418 224.897 616.342 224.85C617.244 224.85 617.244 223.427 616.342 223.427C596.418 223.475 576.542 223.522 556.618 223.57C555.717 223.57 555.717 224.992 556.618 224.992Z" fill="black"/>
<path d="M557.757 238.838C577.538 238.838 597.319 238.838 617.101 238.838C618.002 238.838 618.002 237.415 617.101 237.415C597.319 237.415 577.538 237.415 557.757 237.415C556.855 237.415 556.855 238.838 557.757 238.838Z" fill="black"/>
<path d="M567.292 210.578C567.292 219.824 567.292 229.07 567.292 238.316C567.292 239.217 568.715 239.217 568.715 238.316C568.715 229.07 568.715 219.824 568.715 210.578C568.715 209.677 567.292 209.677 567.292 210.578Z" fill="black"/>
<path d="M584.037 211.004C584.037 219.776 584.037 228.596 584.037 237.368C584.037 238.269 585.46 238.269 585.46 237.368C585.46 228.596 585.46 219.776 585.46 211.004C585.46 210.056 584.037 210.056 584.037 211.004Z" fill="black"/>
<path d="M600.593 210.388C600.593 219.302 600.593 228.217 600.593 237.178C600.593 238.079 602.016 238.079 602.016 237.178C602.016 228.264 602.016 219.35 602.016 210.388C602.016 209.487 600.593 209.487 600.593 210.388Z" fill="black"/>
<path d="M615.63 210.815C615.63 219.729 615.63 228.643 615.63 237.605C615.63 238.506 617.054 238.506 617.054 237.605C617.054 228.691 617.054 219.776 617.054 210.815C617.054 209.866 615.63 209.866 615.63 210.815Z" fill="black"/>
<path d="M560.081 227.126C558.231 228.643 556.286 231.061 557.614 233.575C558.089 234.475 558.895 235.187 559.939 235.329C561.267 235.519 562.311 234.618 563.212 233.764C563.876 233.148 562.88 232.105 562.216 232.768C561.504 233.432 560.698 234.238 559.702 233.764C558.99 233.432 558.611 232.579 558.611 231.82C558.611 230.303 559.986 229.07 561.077 228.169C561.789 227.553 560.793 226.557 560.081 227.126Z" fill="black"/>
<path d="M576.305 232.768C574.549 231.962 574.17 229.497 576.115 228.596C577.301 228.074 577.728 229.497 577.87 230.398C578.012 231.156 577.633 233.1 576.399 232.294C575.64 231.82 574.929 233.053 575.688 233.527C577.016 234.381 578.676 233.48 579.198 232.105C579.578 231.014 579.246 229.876 578.866 228.833C578.582 228.027 578.249 227.316 577.396 227.031C575.735 226.557 573.98 228.027 573.506 229.544C572.936 231.299 573.933 233.195 575.546 233.954C576.399 234.381 577.111 233.148 576.305 232.768Z" fill="black"/>
<path d="M563.259 226.984C563.165 226.841 563.165 226.652 563.354 226.604C563.212 226.509 563.07 226.462 562.927 226.367C563.117 226.889 562.785 227.458 562.785 228.027C562.785 228.406 562.975 228.785 563.307 229.023C564.018 229.544 564.967 229.26 565.347 228.501C565.536 228.074 564.92 227.742 564.73 228.122C564.35 228.88 563.402 228.548 563.497 227.742C563.544 227.221 563.781 226.747 563.591 226.178C563.544 225.988 563.354 225.846 563.165 225.94C562.595 226.13 562.263 226.841 562.643 227.363C562.88 227.742 563.497 227.363 563.259 226.984Z" fill="black"/>
<path d="M579.815 226.699C580.29 226.604 580.716 226.462 581.191 226.367C581.618 226.272 581.428 225.561 581.001 225.703C580.527 225.798 580.1 225.94 579.625 226.035C579.198 226.13 579.388 226.841 579.815 226.699Z" fill="black"/>
<path d="M579.578 226.699C579.673 226.936 579.72 227.221 579.815 227.458C579.863 227.6 580.005 227.742 580.147 227.742C580.384 227.695 580.717 227.647 580.906 227.742C581.001 227.79 581.096 227.885 581.096 227.979C581.096 228.074 581.001 227.979 581.049 228.027C580.764 227.695 580.242 228.169 580.527 228.548C580.954 229.023 581.808 228.643 581.808 228.027C581.808 227.126 580.811 226.984 580.147 227.078C580.242 227.173 580.385 227.268 580.479 227.363C580.385 227.126 580.337 226.841 580.242 226.604C580.147 226.035 579.483 226.225 579.578 226.699Z" fill="black"/>
<path d="M573.032 213.897C573.221 215.841 573.221 217.737 572.984 219.681C572.937 220.156 573.648 220.156 573.696 219.681C573.886 217.737 573.933 215.841 573.743 213.897C573.696 213.422 572.984 213.422 573.032 213.897Z" fill="black"/>
<path d="M573.743 217.216C575.166 217.074 576.115 215.841 575.831 214.418C575.736 213.992 575.166 214.134 575.119 214.513C574.929 216.268 574.882 218.069 574.977 219.824C574.977 220.298 575.688 220.298 575.688 219.824C575.593 218.022 575.641 216.268 575.831 214.513C575.593 214.561 575.356 214.561 575.119 214.608C575.309 215.556 574.645 216.41 573.696 216.505C573.316 216.552 573.316 217.263 573.743 217.216Z" fill="black"/>
<path d="M577.775 213.375C577.823 213.28 577.823 213.233 577.87 213.138C577.775 213.185 577.633 213.185 577.538 213.233C577.823 213.328 577.87 213.802 577.633 213.991C577.396 214.134 577.396 214.56 577.728 214.655C578.012 214.703 578.25 214.75 578.534 214.797C578.487 214.608 578.392 214.466 578.345 214.276C578.155 214.608 577.918 214.892 577.586 215.035C577.159 215.224 577.348 215.888 577.775 215.698C578.297 215.461 578.724 215.129 578.961 214.608C579.056 214.418 579.009 214.134 578.771 214.086C578.487 214.039 578.25 213.991 577.965 213.944C578.012 214.181 578.012 214.371 578.06 214.608C578.866 214.086 578.677 212.853 577.775 212.569C577.68 212.521 577.538 212.569 577.443 212.664C577.159 212.948 577.111 213.233 577.159 213.565C577.159 214.039 577.823 213.849 577.775 213.375Z" fill="black"/>
<path d="M593.714 214.655C591.532 213.138 588.307 216.742 589.493 218.875C590.014 219.824 591.248 220.298 592.244 219.824C593.193 219.397 593.572 218.069 592.481 217.548C592.434 217.785 592.434 217.974 592.386 218.212C592.908 218.117 593.43 218.022 593.952 217.927C594.379 217.832 594.189 217.168 593.762 217.263C593.24 217.358 592.718 217.453 592.196 217.548C591.912 217.595 591.817 218.069 592.102 218.212C592.339 218.875 592.196 219.255 591.722 219.302C591.532 219.397 591.295 219.397 591.105 219.35C590.868 219.302 590.584 219.16 590.441 219.018C589.777 218.401 589.92 217.453 590.346 216.789C590.916 215.841 592.244 214.608 593.382 215.367C593.714 215.509 594.094 214.892 593.714 214.655Z" fill="black"/>
<path d="M595.754 214.655C595.849 215.367 595.944 216.125 596.039 216.836C596.086 217.216 596.181 217.595 596.181 217.927C596.181 218.164 596.134 218.354 596.134 218.591C595.991 219.255 595.564 219.302 594.995 218.828C595.043 218.401 594.378 218.164 594.331 218.638C594.189 219.729 595.327 220.44 596.228 219.776C596.75 219.397 596.94 218.781 596.987 218.164C597.035 217.026 596.75 215.793 596.608 214.655C596.418 214.181 595.707 214.181 595.754 214.655Z" fill="black"/>
<path d="M594.9 214.181C595.707 214.371 596.466 214.466 597.32 214.418C597.794 214.371 597.794 213.66 597.32 213.707C596.561 213.754 595.849 213.707 595.09 213.517C594.616 213.375 594.426 214.086 594.9 214.181Z" fill="black"/>
<path d="M587.832 228.406C588.022 229.923 588.022 231.393 587.832 232.911C587.785 233.385 588.496 233.337 588.544 232.911C588.733 231.346 588.733 229.781 588.496 228.216C588.449 227.79 587.785 227.979 587.832 228.406Z" fill="black"/>
<path d="M588.354 231.678C590.109 232.247 590.631 230.208 590.631 228.928C590.631 228.454 589.967 228.501 589.919 228.928C589.777 230.492 589.682 232.105 589.635 233.717C589.635 234.191 590.346 234.191 590.346 233.717C590.394 232.105 590.489 230.54 590.631 228.928C590.394 228.928 590.157 228.928 589.919 228.928C589.919 229.734 589.824 231.393 588.544 231.014C588.069 230.872 587.879 231.583 588.354 231.678Z" fill="black"/>
<path d="M591.105 232.484C591.153 232.958 591.2 233.432 591.153 233.859C591.153 234.049 591.343 234.191 591.532 234.238C591.77 234.238 592.054 234.286 592.291 234.286C592.766 234.286 592.766 233.574 592.291 233.574C592.054 233.574 591.77 233.527 591.532 233.527C591.675 233.669 591.77 233.764 591.912 233.906C591.912 233.432 591.912 232.958 591.864 232.531C591.817 232.342 591.722 232.199 591.485 232.152C591.248 232.152 591.058 232.294 591.105 232.484Z" fill="black"/>
<path d="M595.327 233.29C594.853 232.626 594.616 231.868 594.568 231.014C594.568 230.492 594.616 229.212 595.09 228.833C596.086 227.979 596.513 230.398 596.561 230.967C596.608 231.393 596.608 231.868 596.513 232.294C596.466 232.626 595.991 234.191 595.232 233.195C594.948 232.816 594.473 233.337 594.711 233.717C595.469 234.665 596.655 234.001 597.035 233.1C597.557 231.725 597.367 229.592 596.513 228.406C595.659 227.221 594.663 227.932 594.236 229.023C593.619 230.54 593.857 232.294 594.758 233.622C594.948 234.049 595.564 233.669 595.327 233.29Z" fill="black"/>
<path d="M607.756 215.367C606.997 214.75 606.001 214.75 605.194 215.272C604.198 215.936 603.913 217.216 603.818 218.306C603.771 219.349 604.056 220.393 605.242 220.535C606.427 220.677 607.234 219.729 607.898 218.828C608.183 218.449 607.566 218.117 607.281 218.449C606.854 219.018 606.333 219.729 605.526 219.776C604.482 219.824 604.483 218.686 604.53 217.974C604.625 216.836 605.716 214.608 607.186 215.793C607.566 216.173 608.088 215.651 607.756 215.367Z" fill="black"/>
<path d="M610.128 218.875C609.843 218.496 609.606 218.069 609.511 217.595C609.416 217.216 609.274 216.362 609.511 216.03C609.748 215.935 609.985 215.793 610.222 215.698C610.412 215.841 610.554 216.078 610.649 216.315C610.744 216.504 610.792 216.742 610.839 216.931C610.887 217.216 610.981 217.5 610.934 217.785C610.886 218.117 610.507 218.828 610.033 218.354C609.701 218.022 609.226 218.543 609.511 218.875C610.127 219.492 611.124 219.207 611.503 218.449C611.93 217.548 611.503 215.983 610.839 215.319C610.08 214.608 609.131 214.987 608.847 215.935C608.515 217.121 608.847 218.354 609.558 219.302C609.795 219.587 610.412 219.255 610.128 218.875Z" fill="black"/>
<path d="M611.456 213.754C611.456 213.802 611.456 213.802 611.456 213.754C611.503 213.754 611.598 213.707 611.693 213.707C611.598 213.707 611.693 214.371 611.741 214.513C611.788 214.608 611.835 214.703 611.883 214.798C612.025 214.987 612.215 215.082 612.452 215.129C612.879 215.224 613.353 215.035 613.543 214.608C613.733 214.181 613.116 213.849 612.926 214.229C612.832 214.466 612.499 214.466 612.405 214.229C612.262 213.849 612.262 213.47 611.741 213.375C611.361 213.328 611.076 213.66 611.171 213.991C611.266 214.323 611.693 214.466 611.978 214.229C612.31 213.944 611.788 213.47 611.456 213.754Z" fill="black"/>
<path d="M557.235 214.229C556.998 216.694 556.95 219.207 557.093 221.673C557.093 222.147 557.804 222.147 557.804 221.673C557.709 219.207 557.757 216.694 557.947 214.229C557.947 213.754 557.235 213.754 557.235 214.229Z" fill="black"/>
<path d="M557.851 215.746C558.8 215.651 559.274 215.936 559.227 216.552C559.227 216.836 559.227 217.074 559.132 217.358C558.99 218.022 558.705 218.591 557.994 218.875C557.709 218.97 557.614 219.492 557.994 219.539C559.369 219.824 560.508 220.488 561.314 221.626C561.599 222.005 562.216 221.626 561.931 221.246C560.982 219.966 559.749 219.16 558.183 218.828C558.183 219.065 558.183 219.302 558.183 219.492C559.891 218.828 560.698 215.888 559.227 214.56C557.994 213.47 556.096 214.94 557.33 216.173C557.662 216.552 558.183 216.078 557.851 215.746Z" fill="black"/>
<path d="M562.927 220.298C562.88 220.488 562.927 220.82 562.975 221.057C563.022 221.341 563.117 221.578 563.354 221.72C563.781 222.052 564.35 221.815 564.825 221.626C565.252 221.436 564.872 220.819 564.445 221.009C564.303 221.104 564.113 221.199 563.923 221.199C563.686 221.199 563.686 221.009 563.686 220.772C563.686 220.44 563.639 220.108 563.449 219.824C563.117 219.444 562.358 219.539 562.263 220.061C562.168 220.535 562.832 220.725 562.927 220.298Z" fill="black"/>
<path d="M603.818 228.454C603.866 230.682 603.866 232.911 603.724 235.092C603.676 235.471 604.34 235.566 604.435 235.187C604.483 234.997 604.53 234.807 604.577 234.665C604.672 234.238 604.008 234.049 603.913 234.475C603.866 234.665 603.818 234.855 603.771 234.997C604.008 235.044 604.245 235.044 604.483 235.092C604.625 232.863 604.672 230.635 604.577 228.454C604.483 227.979 603.771 227.979 603.818 228.454Z" fill="black"/>
<path d="M603.818 228.691C604.198 230.587 604.767 232.437 605.526 234.238C605.668 234.618 606.19 234.57 606.238 234.144C606.522 232.057 606.76 230.018 607.044 227.932C607.092 227.458 606.38 227.505 606.333 227.932C606.048 230.018 605.811 232.057 605.526 234.144C605.763 234.096 606 234.096 606.238 234.049C605.479 232.247 604.909 230.398 604.53 228.501C604.388 228.027 603.723 228.216 603.818 228.691Z" fill="black"/>
<path d="M608.278 234.001C608.088 233.669 607.851 233.243 607.898 232.863C607.946 232.674 608.183 232.294 608.42 232.437C608.657 232.531 608.61 233.243 608.562 233.48C608.515 233.717 608.23 234.191 607.946 233.859C607.661 233.527 607.139 234.001 607.424 234.381C607.851 234.855 608.657 234.712 609.037 234.191C609.416 233.622 609.464 232.484 608.989 231.962C608.562 231.488 607.803 231.725 607.471 232.152C606.902 232.816 607.329 233.717 607.661 234.381C607.898 234.76 608.515 234.381 608.278 234.001Z" fill="black"/>
<path d="M610.175 227.932C610.46 230.208 610.555 232.436 610.412 234.712C610.365 235.187 611.077 235.187 611.124 234.712C611.266 232.436 611.171 230.208 610.887 227.932C610.792 227.505 610.08 227.505 610.175 227.932Z" fill="black"/>
<path d="M610.982 229.354C610.934 228.975 610.887 228.454 611.361 228.359C611.835 228.264 612.073 228.833 612.12 229.212C612.215 229.971 611.741 230.73 611.124 231.156C610.744 231.393 611.076 232.01 611.503 231.773C612.689 231.014 613.448 229.212 612.357 228.027C611.978 227.6 611.314 227.41 610.839 227.742C610.27 228.122 610.27 228.88 610.365 229.497C610.365 229.971 611.076 229.781 610.982 229.354Z" fill="black"/>
<path d="M612.594 226.32C612.357 226.841 612.547 227.458 612.926 227.837C613.306 228.169 614.065 228.311 614.35 227.742C614.539 227.316 613.923 226.984 613.733 227.363C613.685 227.458 613.78 227.41 613.733 227.41C613.685 227.41 613.638 227.41 613.591 227.41C613.496 227.363 613.401 227.268 613.353 227.173C613.211 226.936 613.211 226.699 613.306 226.462C613.401 226.272 613.211 226.083 613.069 226.035C612.832 226.035 612.689 226.178 612.594 226.32Z" fill="black"/>
<path d="M554.199 210.388C554.199 219.587 554.199 228.738 554.199 237.937C554.199 238.838 555.622 238.838 555.622 237.937C555.622 228.738 555.622 219.587 555.622 210.388C555.622 209.487 554.199 209.487 554.199 210.388Z" fill="black"/>
<path d="M555.1 238.838C575.688 238.838 596.276 238.838 616.864 238.838C617.765 238.838 617.765 237.415 616.864 237.415C596.276 237.415 575.688 237.415 555.1 237.415C554.199 237.415 554.199 238.838 555.1 238.838Z" fill="black"/>
<path d="M100.412 355.34C100.412 367.811 100.412 380.234 100.412 392.705C100.412 393.606 101.835 393.606 101.835 392.705C101.835 380.234 101.835 367.811 101.835 355.34C101.835 354.44 100.412 354.44 100.412 355.34Z" fill="black"/>
<path d="M102.689 356.052C126.929 356.052 151.17 356.052 175.363 356.052C176.264 356.052 176.264 354.629 175.363 354.629C151.122 354.629 126.882 354.629 102.689 354.629C101.74 354.629 101.74 356.052 102.689 356.052Z" fill="black"/>
<path d="M102.689 393.938C125.743 393.938 148.75 393.938 171.805 393.938C172.706 393.938 172.706 392.515 171.805 392.515C148.75 392.515 125.743 392.515 102.689 392.515C101.74 392.515 101.74 393.938 102.689 393.938Z" fill="black"/>
<path d="M174.13 356.384C174.13 367.811 174.13 379.239 174.13 390.666C174.13 391.567 175.553 391.567 175.553 390.666C175.553 379.239 175.553 367.811 175.553 356.384C175.553 355.483 174.13 355.483 174.13 356.384Z" fill="black"/>
<path d="M134.235 335.9C134.235 339.835 134.235 343.723 134.235 347.659C134.235 348.56 135.658 348.56 135.658 347.659C135.658 343.723 135.658 339.835 135.658 335.9C135.658 334.999 134.235 334.999 134.235 335.9Z" fill="black"/>
<path d="M135.421 336.611C151.122 336.611 166.824 336.611 182.526 336.611C183.427 336.611 183.427 335.188 182.526 335.188C166.824 335.188 151.122 335.188 135.421 335.188C134.519 335.188 134.519 336.611 135.421 336.611Z" fill="black"/>
<path d="M135.942 348.892C151.122 348.892 166.302 348.892 181.482 348.892C182.384 348.892 182.384 347.469 181.482 347.469C166.302 347.469 151.122 347.469 135.942 347.469C135.041 347.469 135.041 348.892 135.942 348.892Z" fill="black"/>
<path d="M181.293 337.939C181.293 341.163 181.293 344.435 181.293 347.659C181.293 348.56 182.716 348.56 182.716 347.659C182.716 344.435 182.716 341.163 182.716 337.939C182.716 337.038 181.293 337.038 181.293 337.939Z" fill="black"/>
<path d="M215.448 98.4845C218.721 98.3422 221.947 97.9629 225.125 97.3465C226.026 97.1568 225.647 95.7817 224.745 95.9714C221.662 96.5404 218.579 96.9197 215.448 97.062C214.499 97.1094 214.499 98.5319 215.448 98.4845Z" fill="black"/>
<path d="M225.125 96.4456C223.749 91.3246 223.749 85.9665 225.315 80.8929C226.643 76.4831 230.628 68.8016 236.462 71.5518C241.396 73.8752 242.06 80.8455 242.867 85.5871C243.863 91.2297 244.337 96.9671 244.432 102.705C244.432 103.605 245.855 103.605 245.855 102.705C245.713 95.4972 244.954 88.3373 243.483 81.2722C242.487 76.578 240.59 70.1767 234.85 69.6077C229.774 69.1336 226.406 74.1597 224.745 78.2376C222.374 84.1646 222.089 90.7081 223.749 96.8249C223.986 97.7258 225.362 97.3465 225.125 96.4456Z" fill="black"/>
<path d="M215.922 96.4455C214.167 88.764 214.973 80.5609 218.436 73.4484C221.52 67.1894 227.544 61.0727 234.944 60.9304C243.104 60.7882 248.559 68.0429 250.836 75.108C253.398 83.0266 254.014 91.7513 253.967 100.049C253.967 100.95 255.39 100.95 255.39 100.049C255.437 92.3677 254.821 84.4965 252.876 77.0521C251.358 71.2199 248.512 65.4824 243.341 62.0684C232.478 54.8611 220.761 64.297 216.444 74.3968C213.408 81.5093 212.791 89.333 214.499 96.8723C214.736 97.7258 216.112 97.3464 215.922 96.4455Z" fill="black"/>
<path d="M244.622 103.795C248.369 106.118 253.445 104.317 255.058 100.286C255.39 99.4327 254.014 99.0534 253.682 99.9069C252.401 103.131 248.274 104.411 245.381 102.562C244.574 102.088 243.863 103.321 244.622 103.795Z" fill="black"/>
<path d="M213.598 116.361C213.598 128.404 213.598 140.401 213.598 152.445C213.598 153.346 215.021 153.346 215.021 152.445C215.021 140.401 215.021 128.404 215.021 116.361C215.021 115.46 213.598 115.46 213.598 116.361Z" fill="black"/>
<path d="M214.831 117.404C229.015 114.985 242.961 111.571 256.623 107.162C257.477 106.877 257.098 105.502 256.244 105.787C242.582 110.244 228.635 113.658 214.451 116.029C213.55 116.171 213.977 117.546 214.831 117.404Z" fill="black"/>
<path d="M256.908 108.015C256.908 119.3 256.908 130.538 256.908 141.823C256.908 142.724 258.331 142.724 258.331 141.823C258.331 130.538 258.331 119.3 258.331 108.015C258.331 107.114 256.908 107.114 256.908 108.015Z" fill="black"/>
<path d="M215.211 154.057C229.299 151.828 243.199 148.462 256.766 144.004C257.62 143.72 257.24 142.345 256.386 142.629C242.819 147.087 228.92 150.453 214.831 152.682C213.93 152.824 214.309 154.199 215.211 154.057Z" fill="black"/>
<path d="M235.514 129.021C235.039 127.788 234.47 126.413 234.423 125.085C234.375 123.473 235.466 121.339 237.364 121.813C240.258 122.525 239.451 127.172 238.407 128.973C237.933 129.779 239.167 130.491 239.641 129.685C241.206 127.029 241.633 120.96 237.459 120.296C235.798 120.059 234.233 121.197 233.474 122.667C232.383 124.848 233.284 127.361 234.091 129.448C234.47 130.254 235.846 129.874 235.514 129.021Z" fill="black"/>
<path d="M234.375 128.879C234.565 132.293 234.755 135.754 234.944 139.168C235.039 140.685 235.798 141.539 237.506 141.159C239.119 140.78 239.925 139.405 240.115 137.888C240.305 136.323 239.878 134.711 239.736 133.193C239.593 131.392 239.593 129.59 239.736 127.741C239.783 126.84 238.36 126.84 238.312 127.741C238.218 129.542 238.17 131.344 238.312 133.193C238.407 134.426 239.593 139.215 237.648 139.595C235.656 139.974 236.178 135.707 236.083 134.521C235.988 132.672 235.893 130.775 235.751 128.926C235.751 127.978 234.328 127.978 234.375 128.879Z" fill="black"/>
<path d="M339.781 102.373C339.781 112.567 339.781 122.762 339.781 132.956C339.781 133.857 341.204 133.857 341.204 132.956C341.204 122.762 341.204 112.567 341.204 102.373C341.204 101.472 339.781 101.472 339.781 102.373Z" fill="black"/>
<path d="M311.461 135.991C329.25 135.991 346.992 135.991 364.781 135.991C365.682 135.991 365.682 134.569 364.781 134.569C346.992 134.569 329.25 134.569 311.461 134.569C310.56 134.569 310.56 135.991 311.461 135.991Z" fill="black"/>
<path d="M357.808 137.651C357.808 145.759 357.808 153.867 357.808 161.928C357.808 162.829 359.231 162.829 359.231 161.928C359.231 153.82 359.231 145.711 359.231 137.651C359.231 136.75 357.808 136.75 357.808 137.651Z" fill="black"/>
<path d="M103.637 241.066C120.905 241.066 138.124 241.066 155.392 241.066C156.293 241.066 156.293 239.644 155.392 239.644C138.124 239.644 120.905 239.644 103.637 239.644C102.736 239.644 102.736 241.066 103.637 241.066Z" fill="black"/>
<path d="M132.622 238.79C132.622 234.333 132.622 229.923 132.622 225.466C132.622 224.565 131.199 224.565 131.199 225.466C131.199 229.923 131.199 234.333 131.199 238.79C131.199 239.691 132.622 239.691 132.622 238.79Z" fill="black"/>
<path d="M148.418 242.678C148.418 247.894 148.418 253.11 148.418 258.373C148.418 259.274 149.842 259.274 149.842 258.373C149.842 253.158 149.842 247.942 149.842 242.678C149.842 241.778 148.418 241.778 148.418 242.678Z" fill="black"/>
<path d="M516.154 331.964C537.596 331.964 559.037 331.964 580.479 331.964C581.381 331.964 581.381 330.542 580.479 330.542C559.037 330.542 537.596 330.542 516.154 330.542C515.253 330.542 515.253 331.964 516.154 331.964Z" fill="black"/>
<path d="M556.096 330.494C556.096 325.8 556.096 321.106 556.096 316.364C556.096 315.463 554.673 315.463 554.673 316.364C554.673 321.058 554.673 325.753 554.673 330.494C554.673 331.395 556.096 331.395 556.096 330.494Z" fill="black"/>
<path d="M547.51 317.075C564.255 317.075 580.953 317.075 597.699 317.075C598.6 317.075 598.6 315.653 597.699 315.653C580.953 315.653 564.255 315.653 547.51 315.653C546.609 315.653 546.609 317.075 547.51 317.075Z" fill="black"/>
<path d="M141.635 517.648C172.801 517.648 203.92 517.648 235.087 517.648C235.988 517.648 235.988 516.225 235.087 516.225C203.92 516.225 172.801 516.225 141.635 516.225C140.686 516.225 140.686 517.648 141.635 517.648Z" fill="black"/>
<path d="M181.53 510.014C215.495 510.014 249.46 510.014 283.473 510.014C284.374 510.014 284.374 508.591 283.473 508.591C249.508 508.591 215.542 508.591 181.53 508.591C180.628 508.591 180.628 510.014 181.53 510.014Z" fill="black"/>
<path d="M248.654 534.623C269.621 534.623 290.541 534.623 311.509 534.623C312.41 534.623 312.41 533.2 311.509 533.2C290.541 533.2 269.621 533.2 248.654 533.2C247.705 533.2 247.705 534.623 248.654 534.623Z" fill="black"/>
<path d="M330.199 507.453C343.244 507.453 356.242 507.453 369.287 507.453C370.189 507.453 370.189 506.031 369.287 506.031C356.242 506.031 343.244 506.031 330.199 506.031C329.25 506.031 329.25 507.453 330.199 507.453Z" fill="black"/>
<path d="M437.218 493.038C465.253 493.038 493.289 493.038 521.325 493.038C522.226 493.038 522.226 491.616 521.325 491.616C493.289 491.616 465.253 491.616 437.218 491.616C436.269 491.616 436.269 493.038 437.218 493.038Z" fill="black"/>
<path d="M496.657 473.503C530.053 473.503 563.496 473.503 596.892 473.503C597.794 473.503 597.794 472.08 596.892 472.08C563.496 472.08 530.053 472.08 496.657 472.08C495.756 472.08 495.756 473.503 496.657 473.503Z" fill="black"/>
<path d="M555.242 492.185C588.638 492.185 622.082 492.185 655.478 492.185C656.379 492.185 656.379 490.762 655.478 490.762C622.082 490.762 588.638 490.762 555.242 490.762C554.341 490.762 554.341 492.185 555.242 492.185Z" fill="black"/>
<path d="M516.201 522.721C531.192 522.721 546.229 522.721 561.219 522.721C562.121 522.721 562.121 521.299 561.219 521.299C546.229 521.299 531.192 521.299 516.201 521.299C515.253 521.299 515.253 522.721 516.201 522.721Z" fill="black"/>
<path opacity="0.07" d="M291.632 504.608C267.819 523.195 244.052 541.783 220.239 560.37C188.219 546.43 156.246 532.489 124.225 518.549C158.143 499.961 192.061 481.374 225.979 462.787C231.244 462.123 235.893 462.265 239.925 462.787C270.997 466.959 288.264 498.207 291.632 504.608Z" fill="#353535"/>
<path d="M220.049 250.882C219.575 322.623 219.1 394.317 218.626 466.059C241.965 480.758 265.304 495.457 288.644 510.156C313.406 492.754 338.168 475.352 362.978 457.903C362.836 397.541 362.646 337.133 362.504 276.771C341.869 258.895 321.281 240.972 300.645 223.095C273.748 232.342 246.899 241.588 220.049 250.882Z" fill="white"/>
<path d="M288.169 311.67C288.169 363.401 288.169 415.133 288.169 466.865C288.169 481.374 288.169 495.884 288.169 510.393C288.169 511.294 289.593 511.294 289.593 510.393C289.593 458.661 289.593 406.93 289.593 355.198C289.593 340.689 289.593 326.179 289.593 311.67C289.593 310.769 288.169 310.721 288.169 311.67Z" fill="#161616"/>
<path d="M361.887 277.245C361.982 324.425 362.029 371.652 362.124 418.831C362.124 432.061 362.172 445.243 362.172 458.472C362.172 459.373 363.595 459.373 363.595 458.472C363.5 411.292 363.453 364.065 363.358 316.886C363.358 303.656 363.31 290.475 363.31 277.245C363.263 276.344 361.84 276.344 361.887 277.245Z" fill="#161616"/>
<path d="M219.67 251.166C240.163 244.291 260.703 237.415 281.196 230.54C286.272 228.833 291.3 227.173 296.376 225.466C297.467 225.087 298.795 224.328 299.981 224.708C300.883 224.992 302.116 226.509 302.875 227.173C305.01 229.023 307.192 230.824 309.327 232.674C317.486 239.596 325.598 246.519 333.757 253.442C343.102 261.408 352.447 269.327 361.792 277.293C361.84 276.913 361.887 276.534 361.935 276.155C337.931 288.199 313.738 299.721 289.26 310.816C289.545 310.864 289.83 310.911 290.114 310.911C282.24 304.083 274.365 297.208 266.49 290.38C253.872 279.426 241.254 268.426 228.635 257.473C225.742 254.959 222.895 252.446 220.002 249.933C219.527 249.554 218.768 249.791 218.768 250.455C218.768 263.4 218.768 276.392 218.768 289.337C218.768 316.838 218.768 344.292 218.768 371.794C218.768 396.688 218.768 421.582 218.768 446.475C218.768 452.64 218.768 458.756 218.768 464.921C218.768 465.869 218.579 466.675 219.243 467.339C219.812 467.955 220.808 468.335 221.52 468.809C223.133 469.852 224.745 470.848 226.311 471.891C246.519 484.741 266.68 497.543 286.889 510.393C287.41 510.725 287.932 511.057 288.407 511.389C288.596 511.531 288.928 511.531 289.118 511.389C313.738 493.892 338.358 476.443 362.931 458.946C363.69 458.424 362.978 457.192 362.219 457.713C349.269 466.912 336.318 476.111 323.368 485.31C316.822 489.957 310.275 494.603 303.776 499.25C300.551 501.526 297.372 503.802 294.147 506.078C292.771 507.074 290.636 508.07 289.545 509.35C289.213 509.729 289.26 510.109 288.976 510.109C288.312 510.109 286.841 508.734 286.319 508.402C284.422 507.169 282.524 505.983 280.579 504.751C274.839 501.099 269.1 497.448 263.36 493.797C251.168 486.021 238.977 478.292 226.738 470.516C225.03 469.425 223.37 468.382 221.662 467.291C221.235 467.007 220.761 466.628 220.286 466.438C219.954 466.296 219.67 465.821 219.954 466.438C220.286 467.149 220.097 466.106 220.144 465.821C220.191 464.968 220.144 464.114 220.144 463.261C220.144 455.295 220.144 447.282 220.144 439.316C220.144 426.039 220.144 412.762 220.144 399.485C220.144 383.838 220.144 368.19 220.144 352.543C220.144 337.18 220.144 321.817 220.144 306.454C220.144 294.268 220.144 282.082 220.144 269.896C220.144 265.913 220.144 261.882 220.144 257.899C220.144 255.813 220.429 253.49 220.144 251.403C220.097 251.119 220.144 250.834 220.144 250.55C219.717 250.739 219.338 250.882 218.911 251.071C226.785 257.899 234.66 264.775 242.535 271.603C255.153 282.556 267.771 293.557 280.39 304.51C283.283 307.023 286.13 309.536 289.023 312.049C289.308 312.286 289.593 312.286 289.877 312.144C314.307 301.048 338.548 289.526 362.551 277.482C362.931 277.293 363.026 276.629 362.694 276.344C345.806 261.977 328.918 247.61 312.03 233.243C309.991 231.488 307.951 229.781 305.911 228.027C304.962 227.221 304.014 226.415 303.017 225.561C302.258 224.945 300.93 223.333 299.981 223.001C299.317 222.764 298.748 223.143 298.084 223.38C296.756 223.807 295.427 224.281 294.052 224.708C291.395 225.609 288.691 226.509 286.035 227.41C275.646 230.872 265.21 234.381 254.821 237.842C242.914 241.825 231.055 245.808 219.148 249.791C218.389 250.076 218.768 251.451 219.67 251.166Z" fill="#161616"/>
<path d="M229.489 471.606C229.489 462.265 229.489 452.971 229.489 443.63C229.489 442.729 228.066 442.729 228.066 443.63C228.066 452.971 228.066 462.265 228.066 471.606C228.066 472.507 229.489 472.507 229.489 471.606Z" fill="#161616"/>
<path d="M228.446 442.967C239.546 449.178 250.504 455.674 261.272 462.455C262.031 462.929 262.743 461.696 261.984 461.222C251.216 454.441 240.258 447.945 229.157 441.734C228.351 441.307 227.639 442.54 228.446 442.967Z" fill="#161616"/>
<path d="M261.035 462.123C260.418 471.843 259.802 481.611 259.185 491.332C259.138 492.233 260.561 492.233 260.608 491.332C261.225 481.611 261.842 471.843 262.458 462.123C262.506 461.222 261.083 461.222 261.035 462.123Z" fill="#161616"/>
<path d="M234.043 453.303C233.237 459.847 232.762 466.39 232.667 472.934C232.667 473.835 234.091 473.835 234.091 472.934C234.185 466.343 234.66 459.799 235.466 453.303C235.609 452.355 234.185 452.402 234.043 453.303Z" fill="#161616"/>
<path d="M241.586 456.67C240.732 463.451 240.115 470.231 239.783 477.012C239.736 477.913 241.159 477.913 241.206 477.012C241.586 470.231 242.155 463.403 243.009 456.67C243.151 455.769 241.728 455.769 241.586 456.67Z" fill="#161616"/>
<path d="M249.366 461.696C248.322 468.571 247.563 475.494 247.136 482.417C247.088 483.318 248.512 483.318 248.559 482.417C248.986 475.589 249.698 468.809 250.741 462.075C250.883 461.174 249.508 460.795 249.366 461.696Z" fill="#161616"/>
<path d="M255.153 465.015C254.726 471.132 254.299 477.201 253.919 483.318C253.872 484.219 255.295 484.219 255.343 483.318C255.769 477.201 256.196 471.132 256.576 465.015C256.623 464.114 255.2 464.114 255.153 465.015Z" fill="#161616"/>
<path d="M229.394 438.178C241.491 444.484 253.398 451.17 265.067 458.235C265.874 458.709 266.585 457.476 265.779 457.002C254.109 449.937 242.202 443.204 230.106 436.945C229.299 436.518 228.54 437.751 229.394 438.178Z" fill="#161616"/>
<path d="M230.248 437.087C230.248 434.621 230.248 432.203 230.248 429.737C230.248 428.836 228.825 428.836 228.825 429.737C228.825 432.203 228.825 434.621 228.825 437.087C228.825 438.035 230.248 438.035 230.248 437.087Z" fill="#161616"/>
<path d="M229.442 429.548C242.107 435.617 254.346 442.54 266.063 450.221C266.822 450.743 267.534 449.51 266.775 448.988C255.058 441.26 242.819 434.384 230.153 428.315C229.347 427.935 228.635 429.121 229.442 429.548Z" fill="#161616"/>
<path d="M265.304 450.648C265.067 452.782 264.83 454.963 264.593 457.097C264.498 457.998 265.921 457.998 266.016 457.097C266.253 454.963 266.49 452.782 266.728 450.648C266.823 449.747 265.399 449.747 265.304 450.648Z" fill="#161616"/>
<path d="M293.625 317.312C312.078 309.204 330.151 300.195 347.703 290.285C348.51 289.858 347.798 288.625 346.992 289.052C329.392 298.915 311.366 307.924 292.913 316.08C292.059 316.459 292.771 317.692 293.625 317.312Z" fill="#161616"/>
<path d="M292.486 316.601C292.486 320.537 292.486 324.472 292.486 328.408C292.486 329.309 293.909 329.309 293.909 328.408C293.909 324.472 293.909 320.537 293.909 316.601C293.909 315.7 292.486 315.7 292.486 316.601Z" fill="#161616"/>
<path d="M293.814 328.408C306.67 322.718 319.241 316.411 331.527 309.536C332.334 309.109 331.622 307.876 330.816 308.303C318.529 315.179 305.958 321.438 293.103 327.175C292.296 327.554 293.008 328.787 293.814 328.408Z" fill="#161616"/>
<path d="M293.245 381.04C293.245 415.465 293.245 449.889 293.245 484.266C293.245 485.167 294.668 485.167 294.668 484.266C294.668 449.842 294.668 415.417 294.668 381.04C294.668 380.139 293.245 380.139 293.245 381.04Z" fill="#161616"/>
<path d="M297.23 437.087C297.23 455.769 297.23 474.451 297.23 493.133C297.23 494.034 298.653 494.034 298.653 493.133C298.653 474.451 298.653 455.769 298.653 437.087C298.653 436.186 297.23 436.186 297.23 437.087Z" fill="#161616"/>
<path d="M221.662 261.645C221.662 285.828 221.662 310.058 221.662 334.24C221.662 335.141 223.085 335.141 223.085 334.24C223.085 310.058 223.085 285.828 223.085 261.645C223.085 260.744 221.662 260.744 221.662 261.645Z" fill="#161616"/>
<path d="M225.742 314.135C225.742 342.111 225.742 370.135 225.742 398.11C225.742 399.011 227.165 399.011 227.165 398.11C227.165 370.135 227.165 342.111 227.165 314.135C227.165 313.234 225.742 313.234 225.742 314.135Z" fill="#161616"/>
<path opacity="0.06" d="M218.911 250.834C218.911 322.765 218.911 394.696 218.911 466.627C242.25 481.327 265.542 496.026 288.881 510.725C288.881 444.105 288.881 377.484 288.881 310.816C265.542 290.854 242.25 270.844 218.911 250.834Z" fill="#353535"/>
<path opacity="0.1" d="M220.903 276.297C227.971 310.532 234.897 338.982 240.4 360.13C248.939 393.037 253.303 405.839 259.09 418.926C269.005 441.354 280.2 458.472 288.501 469.804C288.786 436.802 289.023 403.848 289.308 370.846C291.632 416.982 312.505 445.954 329.06 445.575C342.438 445.243 355.531 425.849 362.836 402.236C362.836 421.06 362.836 439.837 362.836 458.661C338.311 475.732 313.786 492.849 289.308 509.919C266.111 495.362 242.914 480.758 219.717 466.201C220.097 402.9 220.476 339.598 220.903 276.297Z" fill="#353535"/>
<path opacity="0.39" d="M372.656 253.869C350.739 266.245 328.871 278.62 306.955 290.996C293.957 273.405 280.911 255.766 267.914 238.174C292.961 228.359 318.055 218.496 343.102 208.681C352.969 223.759 362.836 238.79 372.656 253.869Z" fill="#EC615B"/>
<g opacity="0.39">
<g opacity="0.39">
<path opacity="0.39" d="M276.12 242.157C278.539 243.769 280.959 245.381 283.426 246.993C283.805 247.231 284.374 246.993 284.469 246.567C285.513 241.73 287.173 237.178 289.545 232.863C289.972 232.057 288.739 231.346 288.312 232.152C285.892 236.609 284.185 241.303 283.093 246.235C283.426 246.093 283.805 245.95 284.137 245.808C281.718 244.196 279.298 242.584 276.832 240.972C276.073 240.403 275.361 241.635 276.12 242.157Z" fill="#EC615B"/>
</g>
</g>
<path d="M295.617 232.152C296.424 230.919 297.515 229.971 298.89 229.402C299.317 229.212 298.938 228.596 298.511 228.785C297.04 229.449 295.854 230.492 295 231.82C294.763 232.199 295.38 232.531 295.617 232.152Z" fill="#EC615B"/>
<path d="M295.664 235.139C296.613 232.199 299.27 230.066 302.353 229.734C302.828 229.686 302.828 228.975 302.353 229.023C298.938 229.354 296.044 231.63 295 234.95C294.858 235.376 295.522 235.566 295.664 235.139Z" fill="#EC615B"/>
<path d="M296.471 237.558C297.514 233.385 300.456 230.35 304.962 231.82C305.389 231.962 305.579 231.299 305.152 231.156C300.313 229.544 296.945 232.816 295.807 237.368C295.664 237.795 296.329 237.984 296.471 237.558Z" fill="#EC615B"/>
<path d="M297.894 239.881C298.036 237.558 298.416 234.807 300.645 233.48C302.827 232.2 305.294 233.1 306.907 234.807C307.239 235.139 307.713 234.618 307.429 234.286C305.721 232.484 303.207 231.536 300.835 232.579C297.989 233.812 297.42 237.036 297.23 239.834C297.182 240.308 297.894 240.308 297.894 239.881Z" fill="#EC615B"/>
<path d="M300.029 242.584C300.503 239.881 298.274 237.415 300.693 235.092C302.448 233.432 304.678 234.286 306.101 235.803C307.382 237.226 307.903 239.075 308.141 240.924C308.188 241.351 308.9 241.398 308.852 240.924C308.473 237.795 306.48 232.863 302.401 233.385C300.93 233.574 299.649 234.855 299.08 236.182C298.179 238.316 299.744 240.213 299.365 242.347C299.27 242.821 299.981 243.01 300.029 242.584Z" fill="#EC615B"/>
<path d="M301.594 243.674C303.065 241.256 299.981 238.933 301.215 236.704C302.495 234.286 305.01 235.898 305.864 237.605C306.765 239.502 306.765 241.635 306.243 243.627C306.148 244.054 306.812 244.243 306.907 243.817C307.619 241.066 307.334 234.95 303.349 234.76C302.069 234.713 300.788 235.613 300.408 236.799C299.649 239.075 302.353 241.161 301.025 243.295C300.74 243.722 301.357 244.101 301.594 243.674Z" fill="#EC615B"/>
<path d="M303.255 244.196C304.014 242.394 303.824 240.687 302.922 239.027C302.733 238.743 302.59 238.411 302.448 238.079C303.492 237.368 304.108 237.557 304.298 238.553C304.488 239.027 304.63 239.502 304.678 240.023C304.915 241.493 304.678 242.916 304.156 244.291C303.966 244.717 304.678 244.907 304.82 244.48C305.484 242.821 305.674 241.066 305.247 239.359C305.01 238.269 304.393 236.467 303.017 236.419C302.116 236.372 301.594 237.083 301.642 237.937C301.689 238.695 302.258 239.359 302.543 240.023C303.112 241.351 303.065 242.726 302.496 244.054C302.401 244.433 303.065 244.623 303.255 244.196Z" fill="#EC615B"/>
<path d="M335.37 269.801C335.512 268.947 335.559 267.999 334.753 267.477C333.946 266.956 332.571 267.477 331.622 267.43C330.104 267.335 328.586 266.766 327.163 266.292C324.269 265.344 321.328 264.016 319.241 261.645C318.292 260.555 317.059 258.8 316.964 257.283C316.774 253.727 318.814 256.477 320.237 256.856C320.996 257.046 321.613 256.998 321.66 256.145C321.708 255.576 321.233 255.291 320.854 254.865C319.857 253.821 318.909 252.826 318.007 251.688C316.205 249.317 314.782 246.662 313.928 243.817C313.596 242.726 312.505 238.458 314.639 238.743C315.636 238.838 317.343 241.161 317.96 241.92C318.15 241.73 318.292 241.588 318.482 241.398C317.106 239.644 314.829 237.036 314.971 234.665C315.209 230.113 320.474 234.475 321.423 236.135C321.613 235.993 321.802 235.851 321.992 235.708C321.376 234.997 320.427 233.622 320.427 232.579C320.332 229.686 321.945 230.777 323.083 231.536C324.601 232.579 325.692 234.191 326.783 235.661C327.068 236.04 327.59 235.708 327.4 235.282C327.068 234.665 326.831 234.001 326.641 233.29C326.214 232.389 326.594 231.915 327.874 231.82C329.63 230.919 329.487 231.156 330.626 232.389C331.907 233.764 332.903 235.376 333.946 236.941C335.654 239.596 337.599 241.967 339.497 244.433C340.73 246.045 341.726 247.752 342.248 249.744C342.77 251.688 342.722 253.679 343.007 255.623C343.339 257.899 344.288 259.938 346.47 260.981C346.897 261.171 347.229 260.555 346.849 260.365C342.39 258.231 343.956 251.261 342.153 247.278C341.347 245.476 340.113 243.911 338.832 242.394C337.172 240.403 335.796 238.364 334.373 236.182C332.998 234.049 330.578 229.497 327.637 229.402C324.364 229.307 326.072 233.906 326.783 235.471C326.973 235.329 327.21 235.234 327.4 235.092C326.214 233.432 323.131 228.785 320.427 229.686C318.055 230.492 320.617 234.95 321.518 235.993C321.802 236.325 322.277 235.898 322.087 235.566C321.233 234.096 320.047 232.911 318.529 232.199C317.581 231.773 315.588 231.014 314.687 231.962C313.786 232.911 314.26 234.997 314.639 236.088C315.304 238.174 316.679 239.976 318.055 241.683C318.34 242.062 318.814 241.541 318.577 241.161C317.818 240.213 315.304 236.894 313.738 237.415C312.41 237.889 312.742 240.734 312.837 241.635C313.216 244.528 314.639 247.42 316.157 249.838C316.869 250.976 317.675 252.067 318.529 253.063C318.956 253.584 319.857 254.153 320.142 254.77C321.043 255.386 320.854 255.576 319.525 255.339C319.146 255.102 318.719 254.912 318.34 254.675C317.154 254.059 316.395 254.059 316.157 255.576C315.873 257.615 317.296 260.08 318.529 261.55C320.237 263.637 322.609 264.964 325.076 265.96C326.546 266.529 328.112 267.051 329.63 267.43C330.768 267.715 334.943 267.525 334.705 269.279C334.611 270.085 335.322 270.275 335.37 269.801Z" fill="#EC615B"/>
<path d="M317.391 241.114C319.383 243.532 320.996 246.282 322.751 248.89C322.988 249.269 323.605 248.89 323.368 248.511C321.565 245.855 319.905 243.058 317.865 240.592C317.58 240.26 317.106 240.734 317.391 241.114Z" fill="#EC615B"/>
<path d="M320.332 234.618C322.277 237.273 324.079 239.976 325.787 242.773C326.024 243.153 326.641 242.821 326.404 242.394C324.696 239.596 322.894 236.894 320.949 234.238C320.711 233.906 320.095 234.238 320.332 234.618Z" fill="#EC615B"/>
<path d="M267.724 238.269C280.484 255.955 293.53 273.452 306.907 290.664C307.192 291.044 307.666 290.522 307.429 290.143C294.099 272.93 281.101 255.528 268.34 237.889C268.103 237.558 267.487 237.889 267.724 238.269Z" fill="#EC615B"/>
<path d="M449.125 484.029C449.884 492.991 450.643 501.906 451.402 510.867C433.518 518.786 424.884 523.859 425.548 526.041C426.355 528.696 440.633 527.179 468.337 521.489C467.768 506.315 467.151 491.094 466.582 475.921C460.794 478.624 454.96 481.327 449.125 484.029Z" fill="#161616"/>
<path d="M466.534 291.802C469.238 293.604 469.713 297.634 470.661 305.648C471.136 309.489 471.373 314.23 470.187 327.981C470.045 329.451 469.665 334.145 468.479 344.245C466.772 359.039 466.297 360.793 465.823 367.052C465.443 371.936 465.206 377.105 465.348 388.2C465.491 398.774 465.633 413.236 467.293 433.388C468.527 448.325 470.614 466.912 474.362 488.249C470.661 490.194 467.199 491.379 464.4 492.138C458.185 493.797 453.157 493.845 448.84 493.845C444.713 493.845 441.108 493.513 438.167 493.133C436.791 485.973 434.988 475.21 433.565 462.028C432.806 455.2 432.332 447.661 431.383 432.867C430.055 412.146 429.391 401.809 429.201 393.037C429.106 389.149 429.106 385.924 429.675 359.276C430.529 319.304 430.861 314.42 435.036 308.019C443.337 295.216 460.178 287.535 466.534 291.802Z" fill="white"/>
<path d="M470.092 293.13C470.898 306.027 470.661 318.925 469.38 331.774C468.1 344.292 465.965 356.668 465.158 369.186C463.498 394.886 465.206 420.728 468.052 446.286C469.665 460.558 471.61 474.831 473.602 489.056C473.745 489.956 475.12 489.577 474.978 488.676C471.42 463.024 467.862 437.324 466.487 411.434C465.823 398.774 465.68 386.019 466.297 373.359C466.961 360.746 468.811 348.37 470.329 335.852C472.037 321.675 472.416 307.355 471.515 293.082C471.468 292.182 470.045 292.182 470.092 293.13Z" fill="#161616"/>
<path d="M428.964 354.914C427.825 390.95 429.201 427.035 433.233 462.882C434.324 472.839 435.652 482.749 437.17 492.659C437.313 493.56 438.688 493.181 438.546 492.28C433.186 456.86 430.339 421.06 430.055 385.213C429.96 375.113 430.102 365.014 430.434 354.914C430.434 353.965 429.011 353.965 428.964 354.914Z" fill="#161616"/>
<path d="M437.597 493.702C449.931 496.168 462.692 494.556 474.029 489.056C474.836 488.676 474.124 487.443 473.318 487.823C462.36 493.133 449.931 494.746 437.977 492.327C437.076 492.138 436.696 493.513 437.597 493.702Z" fill="#161616"/>
<path opacity="0.09" d="M433.85 319.825C432.569 328.787 431.383 338.982 430.577 350.267C430.102 356.431 429.438 367.005 429.343 380.282C429.248 391.33 429.675 400.671 430.577 418.974C431.573 439.647 432.095 450.221 433.47 461.743C435.036 475.02 436.981 485.831 438.404 492.991C441.724 493.702 446.278 494.224 451.591 493.797C455.102 493.513 458.138 492.849 460.652 492.138C456.62 477.059 452.92 461.269 449.552 444.816C440.301 399.865 435.652 357.806 433.85 319.825Z" fill="#353535"/>
<path opacity="0.09" d="M430.15 366.341C432.19 383.316 433.992 397.921 435.51 409.538C439.4 439.932 440.633 447.566 443.337 457.239C447.797 473.266 453.631 485.641 457.758 493.418C454.865 494.129 450.168 494.888 444.571 493.845C441.962 493.37 439.732 492.564 437.977 491.806C436.032 480.283 434.372 468.192 433.043 455.627C429.581 423.241 429.059 393.274 430.15 366.341Z" fill="#353535"/>
<path d="M395.189 489.103C394.524 498.539 393.86 508.022 393.149 517.458C370.853 522.958 359.895 526.941 360.227 529.36C360.607 532.252 377.067 532.916 409.61 531.399C410.606 517.743 411.649 504.039 412.646 490.383C406.811 489.909 400.976 489.482 395.189 489.103Z" fill="#161616"/>
<path d="M414.875 293.604C412.076 296.591 410.226 300.385 410.226 300.385C409.088 302.708 408.376 304.7 408.091 306.312C407.57 309.868 406.811 314.799 405.957 320.679C404.107 333.529 402.826 343.581 402.162 348.987C399.79 367.716 398.462 379.855 395.805 402.283C391.868 435.427 390.729 442.587 387.788 469.52C386.697 479.525 385.796 487.775 385.227 493.181C386.033 494.461 387.409 496.263 389.591 497.875C390.113 498.254 391.109 498.966 394.097 500.388C396.849 501.668 399.648 502.806 400.881 503.233C408.234 505.604 421.516 502.048 422.228 501.858C422.228 496.69 422.323 489.719 422.702 481.421C422.845 478.102 423.319 469.141 425.169 451.928C426.829 436.518 428.11 424.332 431.004 407.926C433.091 395.929 435.131 386.778 436.981 378.812C439.78 366.294 442.531 355.625 444.808 347.327C448.081 340.926 451.354 334.525 454.628 328.123C455.576 326.748 464.258 313.898 459.324 302.234C451.924 284.5 420.994 287.061 414.875 293.604Z" fill="white"/>
<path d="M413.262 288.388C404.391 312.76 402.494 339.077 399.505 364.634C396.28 392.041 393.054 419.448 389.876 446.902C388.073 462.265 386.27 477.628 384.468 492.944C384.373 493.845 385.796 493.845 385.891 492.944C389.069 465.679 392.295 438.414 395.473 411.15C398.604 384.359 401.355 357.522 405.008 330.826C406.953 316.554 409.657 302.329 414.638 288.768C414.923 287.914 413.547 287.535 413.262 288.388Z" fill="#161616"/>
<path d="M454.296 327.649C446.8 339.456 440.871 352.164 436.696 365.535C436.412 366.389 437.787 366.768 438.072 365.915C442.199 352.685 448.081 340.072 455.529 328.36C456.003 327.602 454.77 326.843 454.296 327.649Z" fill="#161616"/>
<path d="M444.903 344.862C433.423 384.502 426.07 425.328 423.129 466.485C422.275 478.292 421.801 490.099 421.659 501.906C421.659 502.806 423.082 502.806 423.082 501.906C423.556 460.606 428.395 419.401 437.503 379.144C440.064 367.764 443.006 356.479 446.279 345.288C446.516 344.387 445.188 344.008 444.903 344.862Z" fill="#161616"/>
<path d="M384.61 493.702C393.955 504.75 409.372 508.117 422.56 502.19C423.414 501.811 422.655 500.578 421.848 500.957C409.23 506.6 394.524 503.186 385.606 492.659C384.99 491.995 383.993 492.991 384.61 493.702Z" fill="#161616"/>
<path opacity="0.06" d="M424.362 297.634C430.008 302.803 421.089 319.825 415.729 333.007C407.902 352.258 406.241 384.075 402.968 447.803C402.257 461.269 401.498 480.141 401.308 502.949C399.648 502.711 397.655 502.237 395.568 501.289C390.018 498.871 386.792 494.84 385.274 492.659C386.602 483.223 388.5 468.951 390.634 451.501C395.52 411.482 396.517 395.076 400.122 366.341C402.162 350.077 405.34 326.748 410.416 298.44C410.368 298.44 410.368 298.44 424.362 297.634Z" fill="#353535"/>
<path opacity="0.06" d="M401.308 360.177C403.822 395.692 401.166 418.405 398.035 433.009C395.331 445.527 395.947 458.567 394.334 471.274C393.528 477.486 392.437 485.31 396.801 492.659C399.932 497.922 404.581 500.91 407.902 502.522C405.957 502.901 400.881 503.612 395.141 501.289C389.543 499.013 386.412 495.125 385.274 493.465C387.551 473.74 389.923 453.967 392.247 434.242C395.236 409.49 398.272 384.834 401.308 360.177Z" fill="#353535"/>
<path d="M455.671 184.688C454.675 185.257 455.102 190.805 456.003 201.758C456.098 202.659 456.145 203.702 456.287 205.125C456.62 208.349 457.046 211.478 457.568 214.845C461.506 240.403 467.103 259.369 467.103 259.369C469.807 268.521 473.65 279.806 479.105 292.371C480.006 293.983 481.809 296.591 484.845 298.109C488.118 299.768 491.059 299.294 495.423 298.488C503.867 296.923 509.275 293.083 511.22 291.565C514.066 289.384 517.814 286.492 517.482 283.125C517.34 281.94 516.675 280.185 515.205 279.664C513.924 279.189 512.311 279.806 511.22 281.181C513.45 278.099 515.015 275.254 516.059 273.12C518.478 268.189 518.478 266.482 517.956 265.249C517.861 265.059 517.292 263.732 516.059 263.115C515.727 262.973 515.063 262.688 512.928 263.115C510.414 263.589 510.034 264.206 508.421 264.253C506.903 264.301 506.429 263.779 505.29 263.684C503.82 263.542 501.638 264.111 498.697 267.525C498.222 267.146 497.511 266.719 496.609 266.766C495.091 266.814 493.905 268.236 490.869 273.499C489.921 275.112 488.735 277.245 487.406 279.853C486.742 276.913 485.746 272.361 484.608 266.814C480.718 247.278 481.287 243.485 478.346 229.212C474.219 208.918 469.855 200.43 466.012 194.693C462.312 188.908 457.426 183.645 455.671 184.688Z" fill="white"/>
<path d="M455.813 185.731C457.948 184.735 460.51 188.529 461.648 189.904C463.071 191.658 464.4 193.46 465.585 195.357C467.815 198.818 469.665 202.517 471.231 206.357C474.741 214.845 476.781 223.854 478.394 232.863C480.054 242.252 481.382 251.688 482.853 261.076C484.134 269.232 484.987 277.909 489.541 285.022C490.016 285.78 491.249 285.069 490.775 284.31C486.743 278.051 485.746 270.607 484.655 263.447C483.422 255.386 482.189 247.325 480.908 239.265C478.583 224.613 475.642 209.582 468.052 196.637C466.25 193.602 464.21 190.71 461.933 188.007C460.225 186.063 457.995 183.171 455.149 184.498C454.248 184.878 454.959 186.11 455.813 185.731Z" fill="#161616"/>
<path d="M455.528 205.693C457.189 220.298 459.845 234.76 463.545 248.985C467.151 262.831 471.373 277.103 477.445 290.095C480.006 295.501 484.845 301.475 491.581 299.721C492.482 299.484 492.103 298.109 491.201 298.346C481.761 300.859 477.682 287.345 475.215 280.944C472.179 272.978 469.475 264.917 467.103 256.761C462.265 240.071 458.897 223.001 456.904 205.741C456.857 204.793 455.434 204.745 455.528 205.693Z" fill="#161616"/>
<path d="M488.213 280.754C489.446 278.241 490.632 275.68 491.866 273.167C493.146 270.559 494.712 266.908 498.175 267.24C499.076 267.335 499.076 265.913 498.175 265.818C495.471 265.581 493.526 267.335 492.198 269.469C490.158 272.741 488.687 276.534 486.98 279.995C486.6 280.849 487.786 281.56 488.213 280.754Z" fill="#161616"/>
<path d="M495.329 274.732C497.369 271.318 501.259 261.835 506.572 264.727C507.378 265.154 508.09 263.921 507.283 263.494C500.784 259.938 496.562 269.848 494.095 273.973C493.621 274.827 494.854 275.538 495.329 274.732Z" fill="#161616"/>
<path d="M499.456 276.487C501.163 274.068 502.919 271.65 504.626 269.232C506.476 266.624 508.943 263.447 512.548 263.969C513.45 264.111 513.829 262.736 512.928 262.594C509.939 262.119 507.52 263.542 505.575 265.723C502.824 268.758 500.594 272.456 498.222 275.775C497.653 276.487 498.886 277.198 499.456 276.487Z" fill="#161616"/>
<path d="M503.488 277.53C505.528 275.111 507.52 272.646 509.56 270.228C510.746 268.805 515.49 261.455 517.482 265.818C518.004 266.908 517.15 269.137 516.77 270.228C516.249 271.65 515.49 272.978 514.778 274.305C513.165 277.245 511.505 280.138 509.418 282.746C508.848 283.457 509.845 284.453 510.414 283.741C513.023 280.422 515.205 276.724 517.102 272.93C518.288 270.559 520.138 266.245 518.288 263.731C516.438 261.218 513.26 263.684 511.837 265.296C508.611 268.947 505.575 272.788 502.492 276.534C501.923 277.198 502.919 278.194 503.488 277.53Z" fill="#161616"/>
<path d="M512.216 263.921C512.928 264.016 513.592 264.206 514.256 264.443C514.636 264.585 515.015 264.301 515.11 263.969C515.205 263.542 514.968 263.257 514.636 263.115C513.877 262.831 513.07 262.641 512.216 262.546C511.837 262.499 511.505 262.925 511.505 263.257C511.505 263.637 511.837 263.874 512.216 263.921Z" fill="#161616"/>
<path d="M512.833 280.896C513.924 279.521 516.059 280.47 516.486 281.987C516.675 282.651 516.675 283.457 516.533 284.121C516.201 285.685 515.205 287.06 514.114 288.198C512.169 290.285 509.844 292.087 507.378 293.509C502.444 296.354 496.846 297.777 491.201 298.203C490.3 298.251 490.3 299.673 491.201 299.626C499.74 299.009 508.137 296.07 514.351 290C516.628 287.772 518.905 284.642 517.766 281.276C516.913 278.715 513.687 277.53 511.837 279.853C511.22 280.612 512.264 281.608 512.833 280.896Z" fill="#161616"/>
<path opacity="0.08" d="M456.24 185.494C457.284 189.24 458.802 195.025 460.557 202.137C465.063 220.582 468.005 236.088 473.507 258.942C479.058 281.987 481.145 287.203 486.268 289.194C491.961 291.375 503.203 290.285 510.224 284.453C512.454 282.603 514.683 279.948 515.822 280.564C517.008 281.228 516.676 285.116 515.158 288.104C512.311 293.794 505.623 295.738 499.171 297.587C493.906 299.104 491.249 299.863 487.928 298.867C483.042 297.397 480.243 293.32 478.868 291.328C477.16 288.815 476.875 287.345 474.551 280.944C472.179 274.353 471.989 274.542 470.234 269.706C466.724 260.08 464.637 251.64 463.308 246.377C460.604 235.566 458.138 225.561 456.809 212.047C456.24 205.314 455.766 196.258 456.24 185.494Z" fill="#353535"/>
<path opacity="0.06" d="M478.062 286.302C479.39 287.677 485.652 293.888 495.756 294.268C507.236 294.695 514.541 287.203 515.632 286.065C514.399 288.151 511.979 291.47 507.852 294.031C505.243 295.69 503.014 296.354 500.5 297.065C494.001 298.962 489.779 300.147 485.794 298.346C479.722 295.643 478.299 287.629 478.062 286.302Z" fill="#353535"/>
<path d="M452.161 180.752C447.085 180.136 442.294 183.597 439.685 185.494C432.427 190.757 429.628 198.202 428.347 201.426C420.52 221.009 418.243 244.717 417.247 253.632C415.966 264.822 413.452 281.133 407.759 300.954C411.08 303.656 424.22 313.756 443.48 313.14C459.941 312.571 471.183 304.462 474.836 301.523C475.88 282.508 476.022 266.482 475.927 254.485C475.69 232.579 474.931 222.526 471.61 210.957C469.049 202.042 463.309 182.08 452.161 180.752Z" fill="#EC615B"/>
<path opacity="0.08" d="M448.129 182.222C443.385 186.869 454.723 204.982 456.573 209.202C465.111 228.643 469.049 260.08 448.651 312.713C451.449 312.191 454.58 311.433 457.901 310.247C464.827 307.876 470.282 304.652 474.267 301.807C474.599 298.346 475.026 293.699 475.358 288.199C475.88 279.426 475.927 272.219 475.88 266.15C475.785 247.657 475.737 238.411 474.267 226.13C473.508 220.013 471.847 208.586 466.345 195.641C463.071 188.007 459.703 182.696 454.343 181.464C453.679 181.274 449.979 180.42 448.129 182.222Z" fill="#353535"/>
<path opacity="0.05" d="M474.836 236.704C473.887 236.609 472.654 245.286 470.472 256.572C465.87 280.327 460.13 298.867 456.051 310.769C458.755 309.726 461.601 308.54 464.495 307.213C468.053 305.6 471.421 303.941 474.599 302.329C476.639 247.989 475.927 236.799 474.836 236.704Z" fill="#353535"/>
<path d="M441.298 187.675C439.78 187.059 438.357 187.154 437.503 187.296C436.08 189.003 433.85 191.706 431.146 195.025C419.239 209.866 418.196 213.328 409.894 222.811C401.925 231.915 396.422 236.182 392.342 238.933C387.741 242.015 384.325 243.579 383.282 244.054C375.739 247.42 368.908 248.463 364.402 248.843C363.026 248.179 361.033 247.088 359.041 245.286C356.479 242.916 355.293 240.64 354.06 238.553C349.364 230.635 348.083 228.359 346.328 228.406C345.711 228.406 344.715 228.738 343.482 230.587C343.007 230.255 342.201 229.639 341.299 228.833C339.07 226.841 338.453 225.656 336.603 224.85C335.797 224.518 334.753 224.044 333.852 224.565C332.95 225.087 332.761 226.32 332.713 226.604C331.907 225.751 329.962 223.996 327.21 223.854C326.451 223.807 325.36 223.759 324.839 224.423C324.032 225.371 324.791 227.647 326.784 230.018C326.309 229.876 324.032 229.117 323.083 230.161C322.04 231.251 323.131 233.669 323.842 235.234C325.266 238.411 327.116 240.023 330.958 244.291C332.524 246.045 333.757 247.468 334.563 248.369C333.757 248.274 332.476 248.084 331.053 247.515C328.918 246.662 328.207 245.666 327.258 245.95C326.214 246.282 325.645 248.037 325.835 249.412C326.072 250.976 327.543 251.925 328.444 252.446C333.899 255.766 340.635 257.425 342.723 257.947C347.893 259.227 350.502 259.843 352.447 260.08C355.815 260.507 359.183 260.697 364.212 260.46C378.158 259.796 389.022 256.951 391.346 256.335C396.374 255.007 400.786 253.821 406.336 251.308C411.507 248.985 422.892 243.722 432.854 231.82C438.309 225.324 440.634 219.966 445.33 209.297C445.899 207.97 447.038 205.362 447.227 201.853C447.465 196.921 446.089 189.572 441.298 187.675Z" fill="white"/>
<path d="M440.918 186.679C437.645 185.447 435.178 188.529 433.328 190.805C430.672 194.029 428.157 197.348 425.643 200.715C420.188 208.064 414.922 215.604 408.898 222.574C397.513 235.851 382.522 247.562 364.259 247.989C363.358 247.989 363.358 249.412 364.259 249.412C380.767 249.032 394.999 239.596 405.957 227.932C411.649 221.863 416.677 215.224 421.611 208.539C424.22 204.982 426.829 201.426 429.486 197.917C431.051 195.878 432.664 193.839 434.277 191.848C435.747 190.046 437.787 187.106 440.491 188.102C441.392 188.339 441.724 186.964 440.918 186.679Z" fill="#161616"/>
<path d="M446.421 200.762C440.159 243.817 390.54 263.447 351.688 259.085C345.332 258.373 338.88 256.904 333.045 254.201C331.575 253.537 330.104 252.778 328.776 251.877C328.207 251.498 327.637 251.166 327.211 250.645C326.119 249.838 326.025 248.985 326.831 248.037C326.926 246.756 327.543 246.377 328.729 246.851C331.053 247.373 332.524 249.364 335.038 249.412C335.939 249.412 335.939 247.989 335.038 247.989C332.476 247.942 330.816 245.524 328.302 245.334C326.499 245.192 324.981 246.187 324.744 248.037C324.269 252.399 330.863 254.817 333.994 256.145C345.616 260.981 358.614 261.645 370.995 260.602C393.86 258.658 417.152 250.407 432.617 232.863C440.491 223.902 446.041 212.996 447.749 201.142C447.939 200.241 446.563 199.861 446.421 200.762Z" fill="#161616"/>
<path d="M335.417 248.226C334.279 246.14 332.476 244.812 330.816 243.2C328.444 240.877 326.499 237.605 324.886 234.665C324.459 233.859 324.032 233.053 323.795 232.2C323.178 231.014 323.558 230.587 324.839 230.967C325.645 230.635 326.262 230.824 326.736 231.441C327.922 232.152 329.06 233.527 330.009 234.523C332.334 236.894 334.373 239.549 336.176 242.347C336.65 243.105 337.884 242.394 337.409 241.635C335.986 239.454 325.028 224.281 322.467 229.639C320.949 232.721 324.744 237.131 326.214 239.502C327.305 241.209 328.349 242.821 329.819 244.243C331.385 245.761 333.14 246.994 334.231 248.985C334.611 249.744 335.844 249.032 335.417 248.226Z" fill="#161616"/>
<path d="M328.633 230.777C328.017 230.16 323.415 224.518 326.357 224.186C327.021 224.091 328.728 225.514 329.298 225.893C330.246 226.557 331.195 227.315 332.049 228.169C335.18 231.061 337.647 234.57 340.066 238.032C340.588 238.79 341.821 238.079 341.299 237.32C337.647 232.152 333.472 225.798 327.448 223.143C325.977 222.479 323.985 222.384 323.795 224.423C323.558 227.031 325.882 230.16 327.59 231.82C328.301 232.436 329.298 231.441 328.633 230.777Z" fill="#161616"/>
<path d="M334.373 228.406C334.231 228.122 333.567 226.747 333.662 226.415C334.184 225.988 334.706 225.514 335.227 225.087C335.559 225.277 335.939 225.419 336.271 225.609C337.647 226.415 338.833 227.6 339.924 228.785C342.106 231.251 344.003 234.001 345.996 236.609C346.565 237.32 347.798 236.609 347.229 235.898C344.193 231.962 341.062 226.225 336.318 224.044C335.275 223.57 333.804 223.19 332.855 224.044C331.432 225.277 332.476 227.505 333.045 228.833C333.33 229.639 334.705 229.26 334.373 228.406Z" fill="#161616"/>
<path d="M344.573 231.441C344.193 230.255 343.861 229.971 345.379 229.829C346.707 229.734 346.755 230.018 347.561 230.872C348.557 232.01 349.459 233.195 350.36 234.381C351.878 236.467 353.301 238.648 354.867 240.782C357.286 244.054 360.464 248.653 364.828 249.269C365.73 249.412 366.109 248.037 365.208 247.894C361.271 247.325 358.282 243.058 356.1 240.071C354.108 237.368 352.257 234.475 350.218 231.82C349.032 230.35 347.229 227.316 345 227.41C342.628 227.505 342.77 230.208 343.292 231.82C343.482 232.674 344.857 232.294 344.573 231.441Z" fill="#161616"/>
<path opacity="0.08" d="M446.231 192.891C445.093 192.559 443.243 197.396 439.685 203.655C433.85 213.991 427.968 220.772 421.753 226.936C407 241.541 399.6 248.89 386.697 252.731C382.096 254.106 360.844 259.796 341.205 247.515C331.907 241.683 326.546 234.049 323.842 229.402C323.368 229.876 322.799 230.587 322.704 231.536C322.514 232.911 323.415 233.954 324.459 235.376C325.882 237.415 325.977 237.937 326.499 238.98C326.499 238.98 326.926 239.739 327.543 240.592C329.155 242.821 334.848 247.989 334.468 248.511C334.326 248.7 333.235 248.179 331.005 247.183C328.823 246.187 328.444 245.903 327.732 246.045C326.451 246.282 325.171 247.705 325.218 249.127C325.265 250.407 326.357 251.261 327.353 252.02C328.491 252.921 329.582 253.252 329.867 253.347C334.041 254.77 335.085 255.718 338.738 256.809C349.411 259.986 361.46 260.27 361.46 260.27C379.155 260.697 392.722 256.24 395.568 255.244C401.45 253.252 412.977 249.222 424.647 239.265C430.434 234.333 439.258 226.652 443.907 213.849C447.465 204.129 447.844 193.318 446.231 192.891Z" fill="#353535"/>
<path opacity="0.06" d="M335.227 254.722C342.817 256.382 352.068 257.615 362.599 257.425C388.357 256.951 408.234 248.037 419.429 241.825C413.452 246.756 403.348 253.821 389.164 257.804C364.069 264.87 342.865 257.71 335.227 254.722Z" fill="#353535"/>
<path d="M412.835 122.335C412.788 122.43 411.127 125.227 407.854 130.87C404.059 137.366 402.494 140.069 400.928 143.91C399.837 146.612 399.126 148.841 398.699 150.358C400.786 151.212 402.873 152.065 404.96 152.919C405.53 157.566 406.905 161.122 407.996 163.35C409.752 166.954 412.266 172.217 417.958 174.778C418.812 175.157 421.374 176.248 424.884 176.248C429.249 176.248 432.474 174.541 433.897 173.687C434.182 175.489 434.751 177.765 435.842 180.278C436.744 182.412 437.787 184.119 438.736 185.447C443.195 183.74 447.654 182.033 452.066 180.278C450.833 178.429 449.22 175.489 448.223 171.601C447.891 170.273 447.132 166.954 447.417 162.26C447.749 156.522 449.362 153.535 451.117 148.13C453.821 139.69 455.434 134.758 454.675 129.495C453.679 122.667 448.556 114.796 440.681 111.951C429.391 107.826 417.674 115.839 412.835 122.335Z" fill="white"/>
<path d="M404.96 127.835C402.019 126.697 401.355 120.913 401.924 117.072C402.114 115.792 402.826 111.998 406.289 108.205C410.985 103.036 415.966 103.084 423.176 100.002C427.161 98.2948 432.854 95.2127 438.926 89.2382C438.024 91.9409 437.123 94.5963 436.174 97.299C437.55 97.3939 440.965 97.5361 444.523 95.5446C448.935 93.1264 450.643 89.1434 451.117 88.0054C451.876 89.1908 455.007 94.3592 453.347 100.239C452.872 101.898 452.113 103.226 451.402 104.269C453.868 103.605 457.331 102.325 460.273 99.4328C463.498 96.2559 463.925 93.3634 465.253 93.5057C467.815 93.7428 468.764 104.174 469.286 109.912C469.618 113.705 470.14 116.361 469.143 119.537C468.242 122.477 466.534 124.706 466.724 124.848C467.056 125.038 471.847 117.167 473.176 117.783C473.982 118.162 472.559 121.197 472.037 126.934C471.42 133.952 472.843 135.28 471.563 140.259C470.804 143.151 469.713 145.19 468.527 147.513C467.056 150.216 465.253 153.63 461.933 156.665C458.849 159.51 455.054 162.971 450.358 162.307C444.239 161.406 441.392 154.152 441.203 153.63C441.724 153.63 446.421 153.393 448.745 149.789C451.686 145.19 448.745 138.362 445.377 137.224C442.91 136.37 440.965 138.883 438.641 137.698C436.744 136.75 436.506 134.426 435.747 132.245C434.751 129.353 432.569 125.512 427.209 121.624C423.84 121.482 418.86 121.766 413.689 124.184C409.135 126.223 407.19 128.689 404.96 127.835Z" fill="black"/>
<path d="M404.533 135.944C402.067 139.737 400.027 143.767 398.604 148.082C398.272 149.078 397.702 150.121 398.414 150.975C398.936 151.591 400.217 151.781 400.928 152.065C402.114 152.492 403.3 152.966 404.486 153.393C405.34 153.725 405.719 152.35 404.866 152.018C404.059 151.733 403.3 151.449 402.494 151.117C402.019 150.927 400.454 150.595 400.122 150.216C399.126 149.22 400.549 146.755 400.976 145.711C402.256 142.535 403.869 139.547 405.767 136.655C406.289 135.896 405.055 135.185 404.533 135.944Z" fill="#161616"/>
<path d="M404.201 152.871C406.81 161.975 410.084 172.123 419.381 176.437C420.188 176.817 420.947 175.584 420.093 175.205C411.175 171.032 408.091 161.264 405.577 152.492C405.292 151.591 403.917 151.97 404.201 152.871Z" fill="#161616"/>
<path d="M419.619 176.58C427.92 178.429 437.218 173.972 442.768 168.045C443.385 167.381 442.389 166.385 441.772 167.049C436.554 172.597 427.778 176.959 419.998 175.205C419.097 174.967 418.717 176.343 419.619 176.58Z" fill="#161616"/>
<path d="M433.233 174.019C433.802 178.192 435.32 181.938 437.929 185.257C438.499 185.968 439.495 184.972 438.926 184.261C436.601 181.274 435.178 177.765 434.656 174.019C434.561 173.118 433.138 173.118 433.233 174.019Z" fill="#161616"/>
<path d="M446.8 167.902C447.085 172.597 448.793 176.864 451.829 180.468C452.398 181.179 453.442 180.136 452.825 179.472C450.026 176.153 448.461 172.217 448.176 167.902C448.129 167.002 446.706 167.002 446.8 167.902Z" fill="#161616"/>
<path d="M439.78 139.547C441.155 137.461 443.764 137.176 445.804 138.504C447.654 139.69 448.556 141.966 448.698 144.052C448.935 147.418 446.753 154.246 442.009 152.208C441.155 151.828 440.444 153.061 441.298 153.44C447.464 156.096 450.738 147.987 450.026 143.104C449.599 140.306 447.986 137.556 445.187 136.607C442.673 135.707 440.064 136.655 438.594 138.836C438.024 139.595 439.258 140.306 439.78 139.547Z" fill="#161616"/>
<path d="M434.514 175.916C437.265 174.161 439.637 172.028 441.677 169.515C442.246 168.803 441.25 167.808 440.681 168.519C438.736 170.937 436.412 173.023 433.803 174.73C433.044 175.205 433.755 176.437 434.514 175.916Z" fill="#161616"/>
<path d="M408.566 162.26C411.839 162.544 415.112 161.359 417.389 158.941C418.86 157.328 419.429 154.626 416.44 154.721C415.681 154.768 415.444 155.906 416.251 156.096C417.342 156.38 418.243 156.807 419.144 157.566C419.856 158.135 420.852 157.139 420.14 156.57C419.049 155.669 418.006 155.1 416.63 154.768C416.583 155.242 416.488 155.716 416.44 156.143C418.053 156.096 415.918 158.419 415.729 158.609C414.97 159.273 414.163 159.747 413.262 160.126C411.744 160.79 410.226 160.98 408.566 160.837C407.664 160.79 407.664 162.212 408.566 162.26Z" fill="#161616"/>
<path d="M414.828 140.828C414.021 139.405 413.736 137.84 414.116 136.276C413.784 136.418 413.404 136.56 413.072 136.702C414.353 137.698 414.069 139.547 413.879 140.922C414.306 140.875 414.733 140.828 415.16 140.733C414.59 139.927 414.306 139.073 414.306 138.077C414.306 137.176 412.883 137.176 412.883 138.077C412.883 139.31 413.215 140.448 413.926 141.444C414.258 141.871 415.112 141.918 415.207 141.254C415.539 139.121 415.634 136.892 413.736 135.422C413.357 135.138 412.788 135.422 412.693 135.849C412.218 137.793 412.503 139.784 413.547 141.491C414.069 142.345 415.302 141.634 414.828 140.828Z" fill="#161616"/>
<path d="M411.981 130.775C414.306 128.025 417.674 130.111 418.907 132.719C419.287 133.525 420.52 132.814 420.141 132.008C418.528 128.594 413.879 126.413 410.985 129.779C410.368 130.491 411.365 131.486 411.981 130.775Z" fill="#161616"/>
<path opacity="0.07" d="M434.846 129.969C435.036 131.06 435.273 132.767 435.652 134.758C436.696 140.401 437.597 143.625 437.929 145.142C439.163 150.927 437.55 159.842 431.668 165.674C425.169 172.075 416.298 171.933 414.068 171.838C415.065 173.023 416.63 174.541 418.907 175.537C425.833 178.571 432.854 174.161 433.613 173.64C433.518 176.722 434.182 177.765 434.846 178.097C436.886 178.998 441.44 174.778 443.432 170.226C445.567 165.295 444.476 160.553 443.907 158.609C441.25 154.958 441.108 153.677 441.487 153.251C442.057 152.634 443.622 153.772 445.377 153.156C447.227 152.445 447.986 150.216 448.461 148.841C449.077 146.992 450.738 141.966 447.654 139.026C445.709 137.176 442.531 136.845 439.542 137.888C438.926 137.793 438.119 137.508 437.503 136.845C436.696 135.991 436.696 134.995 436.269 133.288C435.985 132.435 435.605 131.297 434.846 129.969Z" fill="#353535"/>
<path opacity="0.1" d="M441.487 162.023C441.108 166.101 440.112 169.42 439.21 171.838C440.871 171.364 442.578 170.842 444.239 170.368C445.662 174.114 447.037 177.907 448.461 181.653C449.504 181.132 450.5 180.61 451.544 180.041C450.358 177.386 449.172 174.114 448.223 170.321C447.417 167.096 446.99 164.109 446.753 161.549C445.946 160.742 444.998 159.747 444.144 158.466C442.673 156.333 441.819 154.341 441.297 152.776C441.582 155.195 441.819 158.372 441.487 162.023Z" fill="#353535"/>
<path opacity="0.13" d="M468.337 102.562C467.673 102.562 468.1 109.106 465.301 117.072C464.115 120.438 461.933 126.413 456.335 131.439C452.35 134.995 448.223 136.75 445.614 137.603C446.326 138.03 447.464 138.836 448.318 140.211C450.405 143.53 449.077 147.276 448.698 148.367C448.176 149.884 447.464 151.876 445.472 152.919C443.622 153.867 441.724 153.488 441.06 153.298C441.203 153.725 444.191 161.596 450.405 162.26C453.015 162.544 455.149 161.406 456.762 160.553C460.984 158.372 463.119 155.1 465.728 151.069C469.191 145.711 471.61 141.918 471.942 136.56C472.179 132.34 470.898 131.249 471.8 127.219C472.084 125.939 472.843 123.378 472.701 119.822C472.654 119.063 472.606 118.447 472.559 118.02C470.614 120.249 468.669 122.525 466.724 124.753C467.388 123.473 468.242 121.482 468.811 118.921C469.428 116.123 469.333 113.942 469.191 110.339C469.143 108.3 468.954 102.562 468.337 102.562Z" fill="#353535"/>
</svg>
